<?xml version="1.0" standalone="no"?>
<!DOCTYPE svg PUBLIC "-//W3C//DTD SVG 20010904//EN"
 "http://www.w3.org/TR/2001/REC-SVG-20010904/DTD/svg10.dtd">
<svg version="1.0" xmlns="http://www.w3.org/2000/svg"
 width="1392.000000pt" height="1392.000000pt" viewBox="0 0 1392.000000 1392.000000"
 preserveAspectRatio="xMidYMid meet">
<metadata>
Created by potrace 1.14, written by Peter Selinger 2001-2017
</metadata>
<g transform="translate(0.000000,1392.000000) scale(0.100000,-0.100000)"
fill="#000000" stroke="none">
<path d="M5160 13514 c-94 -17 -155 -50 -226 -119 -173 -170 -166 -434 17
-604 10 -9 47 -32 82 -50 l64 -33 -14 -51 c-18 -66 -23 -86 -29 -117 -3 -14
-8 -34 -11 -45 -4 -11 -8 -24 -9 -30 -1 -5 -59 -234 -128 -508 -69 -274 -128
-508 -130 -520 -2 -12 -25 -103 -51 -202 -25 -99 -59 -232 -75 -295 -16 -63
-50 -198 -75 -300 -26 -102 -64 -257 -86 -345 -22 -88 -44 -176 -49 -195 -5
-19 -28 -110 -52 -202 l-43 -168 -184 -91 c-101 -49 -208 -105 -237 -124 l-52
-34 -28 42 c-170 252 -341 410 -525 484 -72 29 -81 31 -182 47 -71 12 -175 12
-231 2 -12 -2 -39 -7 -61 -11 -22 -4 -76 -24 -121 -46 -61 -29 -95 -53 -135
-97 -174 -187 -217 -461 -119 -754 64 -191 194 -388 331 -503 38 -32 44 -41
34 -52 -8 -7 -16 -13 -20 -13 -3 0 -11 -5 -18 -10 -7 -6 -41 -33 -77 -61 -200
-155 -392 -388 -517 -629 -55 -107 -142 -325 -134 -338 1 -1 -6 -16 -14 -32
-9 -17 -13 -35 -10 -40 3 -6 1 -10 -6 -10 -7 0 -10 -2 -7 -6 3 -3 2 -22 -3
-42 -26 -102 -37 -161 -43 -223 -2 -14 -5 -30 -7 -35 -9 -17 -13 -119 -13
-314 0 -175 3 -226 20 -350 7 -50 33 -178 45 -225 6 -22 12 -47 14 -56 15 -78
112 -326 179 -459 19 -38 32 -77 30 -95 -1 -16 -5 -59 -8 -95 -4 -36 -9 -85
-11 -110 -2 -25 -7 -76 -10 -115 -3 -38 -7 -95 -10 -125 -13 -160 -22 -300
-30 -470 -3 -63 -8 -146 -10 -185 -13 -222 -23 -580 -30 -1007 -4 -245 -9
-354 -17 -359 -7 -5 -13 -90 -16 -265 -11 -487 -8 -741 13 -1109 2 -38 6 -135
10 -215 3 -80 7 -185 10 -235 2 -49 7 -148 10 -220 3 -71 8 -182 11 -245 2
-63 7 -276 9 -472 4 -387 4 -386 61 -413 28 -13 565 -15 4638 -15 2985 0 4606
3 4606 10 0 5 13 7 29 4 57 -12 101 28 106 96 1 14 5 61 9 105 8 91 12 169 23
415 10 225 10 1577 0 2000 -16 631 -24 897 -32 1060 -2 41 -7 131 -10 200 -3
69 -7 154 -9 190 -7 109 -18 291 -21 364 -2 38 -6 101 -9 140 -3 39 -8 107
-11 151 -11 158 -26 363 -30 405 -2 19 -7 71 -11 115 -4 44 -8 89 -9 100 -1
20 32 87 47 93 4 2 8 10 8 17 0 8 6 18 13 22 12 8 14 11 69 103 46 79 118 220
112 220 -3 0 2 7 10 16 9 8 16 23 16 33 0 9 4 21 9 26 5 6 25 60 46 120 20 61
41 119 45 130 5 11 12 34 16 50 4 17 8 35 10 40 20 81 45 218 48 261 2 23 6
46 8 50 21 39 16 522 -7 634 -2 13 -7 42 -11 65 -3 22 -10 58 -15 80 -5 22
-12 51 -15 65 -2 14 -9 39 -15 56 -5 17 -11 40 -13 50 -3 10 -9 30 -14 44 -5
14 -10 27 -10 30 0 3 -6 19 -12 35 -7 17 -23 59 -36 95 -14 36 -34 80 -44 98
-11 18 -20 37 -20 42 0 19 -134 233 -201 320 -78 102 -219 249 -309 321 -30
24 -56 47 -58 52 -2 4 -8 7 -14 7 -5 0 -25 12 -43 26 l-34 26 37 51 c141 193
252 430 282 603 12 72 16 186 7 229 -4 17 -9 45 -12 64 -3 19 -21 68 -40 109
-82 177 -227 293 -412 330 -73 14 -284 7 -358 -12 -214 -56 -396 -195 -584
-448 l-43 -58 -72 49 c-188 129 -505 301 -716 389 -98 40 -131 54 -140 57 -3
1 -18 7 -33 13 -16 7 -33 12 -38 12 -5 0 -17 4 -27 10 -45 25 -356 113 -485
136 l-37 6 20 32 c31 46 68 130 80 179 14 52 2 89 -36 113 -23 16 -33 16 -83
5 -71 -15 -62 -13 -216 -56 -148 -41 -385 -100 -436 -109 -19 -3 -43 -7 -54
-10 -11 -2 -47 -7 -80 -10 -33 -4 -77 -9 -98 -12 -41 -5 -41 -5 -7 46 69 102
116 227 135 359 15 100 4 144 -40 161 -49 19 -70 11 -127 -42 -76 -73 -97 -91
-164 -134 -108 -69 -157 -95 -168 -91 -6 3 -30 31 -52 63 -37 54 -177 246
-412 568 -48 66 -108 149 -134 185 -26 36 -76 104 -110 151 -52 72 -199 275
-289 400 -13 19 -32 43 -41 54 -9 12 -62 84 -117 161 -99 138 -194 269 -383
527 -93 128 -96 133 -76 146 32 23 97 131 114 190 54 184 -34 390 -203 475
-94 48 -181 61 -283 41z"/>
</g>
</svg>
